<?xml version="1.0" encoding="iso-8859-1"?>
<!-- Generator: Adobe Illustrator 19.0.0, SVG Export Plug-In . SVG Version: 6.00 Build 0)  -->
<svg version="1.1" id="Capa_1" xmlns="http://www.w3.org/2000/svg" xmlns:xlink="http://www.w3.org/1999/xlink" x="0px" y="0px"
	 viewBox="0 0 512 512" style="enable-background:new 0 0 512 512;" xml:space="preserve">
<linearGradient id="SVGID_1_" gradientUnits="userSpaceOnUse" x1="10.0002" y1="258" x2="502.0001" y2="258" gradientTransform="matrix(1 0 0 -1 0 514.0001)">
	<stop  offset="0" style="stop-color:#80D8FF"/>
	<stop  offset="1" style="stop-color:#EA80FC"/>
</linearGradient>
<path style="fill:url(#SVGID_1_);" d="M487.243,14.739C487.242,14.739,487.242,14.739,487.243,14.739
	C468.5-3.988,438.196-4.997,418.25,12.442L197.614,205.335c-86.362,15.256-140.287,42.753-164.722,83.999
	c-31.029,52.377-1.962,107.929,2.265,125.413c4.873,20.174-4.958,28.425-19.293,42.759c-4.862,4.858-6.888,11.871-5.368,18.574
	c1.52,6.702,6.375,12.154,12.857,14.439c69.475,24.488,149.263,35.812,207.306-9.103c66.156-51.195,68.456-149.14,67.502-179.119
	L489.542,83.721C507.003,63.777,505.993,33.477,487.243,14.739z M206.065,449.864c-32.158,24.811-79.456,28.79-140.854,11.92
	c16.135-25.088,5.896-36.654,21.904-66.692c10.87-20.397,26.861-30.312,48.888-30.312c11.047,0,20.002-8.955,20.002-20.002
	c0-11.047-8.955-20.002-20.002-20.002c-20.866,0-39.316,5.698-54.837,16.936c-7.578,5.487-14.354,12.236-20.262,20.163
	c-3.397-16.635-3.664-35.154,6.406-52.152c22.811-38.504,88.382-55.961,132.479-64.139l58.363,58.32
	C258.793,328.372,256.928,410.622,206.065,449.864z M459.445,57.37L276.791,265.976c-0.954-0.953,2.507,2.505-40.954-40.923
	L444.581,42.558c4.158-3.634,10.479-3.427,14.385,0.479v0.001C462.862,46.93,463.072,53.226,459.445,57.37z"/>
<g>
</g>
<g>
</g>
<g>
</g>
<g>
</g>
<g>
</g>
<g>
</g>
<g>
</g>
<g>
</g>
<g>
</g>
<g>
</g>
<g>
</g>
<g>
</g>
<g>
</g>
<g>
</g>
<g>
</g>
</svg>
